<svg width="22" height="22" viewBox="0 0 24 24" fill="currentColor" aria-hidden="true"><path d="M12 2C6.48 2 2 6.25 2 11.64c0 3.82 2.38 7.08 5.75 8.24-.08-.7-.14-1.78.03-2.55.15-.67 1-4.25 1-4.25s-.25-.51-.25-1.27c0-1.19.69-2.08 1.55-2.08.73 0 1.09.55 1.09 1.21 0 .74-.47 1.85-.71 2.88-.2.85.42 1.54 1.25 1.54 1.5 0 2.66-1.58 2.66-3.86 0-2.02-1.45-3.43-3.52-3.43-2.4 0-3.81 1.8-3.81 3.66 0 .72.28 1.49.64 1.92.07.09.08.17.06.26-.07.29-.22.91-.25 1.04-.04.16-.13.19-.31.12-1.16-.49-1.89-2.04-1.89-3.28 0-2.67 1.94-5.12 5.6-5.12 2.94 0 5.22 2.1 5.22 4.91 0 2.92-1.84 5.27-4.39 5.27-.86 0-1.67-.45-1.95-.98l-.53 2.02c-.19.72-.71 1.63-1.05 2.18.79.24 1.63.36 2.5.36 5.52 0 10-4.25 10-9.64C22 6.25 17.52 2 12 2z"/></svg>